<svg id="Layer_1" data-name="Layer 1" xmlns="http://www.w3.org/2000/svg" viewBox="0 0 300 149.51005" class="favicoSvg">
    <defs>
        <style>
            
            .cls-1 { fill: black}
            @media (prefers-color-scheme: dark) {
                    .cls-1 { fill: #ff6600 }
                    .notification-background{ fill: #FFC300 }
                }
                
               
        </style>
    </defs>
    <path id="Logo" class="cls-1" d="M299.92126,77.34172a22.19229,22.19229,0,0,0-2.34345-8.19641,21.54349,21.54349,0,0,0-5.3816-6.79145L251.86415,28.31213q-23.49084-19.827-54.54871-17.198-30.77533,2.60295-50.73082,26.24584a24.02842,24.02842,0,0,0-1.63073,2.1752L98.4461,94.63687A28.93443,28.93443,0,0,1,77.406,105.45675a30.7375,30.7375,0,0,1-26.0916-50.60066A29.44759,29.44759,0,0,1,72.06951,44.06031a29.78453,29.78453,0,0,1,22.55838,7.13243,21.48907,21.48907,0,0,0,7.59887,4.16447,22.138,22.138,0,0,0,8.47387.93381,22.50416,22.50416,0,0,0,8.13122-2.2662,21.30109,21.30109,0,0,0,6.85667-5.45885,21.54458,21.54458,0,0,0,4.16447-7.59886,22.09657,22.09657,0,0,0-1.41021-16.67024,21.54466,21.54466,0,0,0-5.38157-6.79145Q99.57039-2.32167,68.51247.30735,37.73709,2.9103,17.78161,26.55323-2.3053,50.35192.29863,81.126q2.60291,30.7754,26.24584,50.73086,23.6434,19.95583,54.41861,17.35281,31.0559-2.62662,51.01581-26.26994l50.37479-59.68326a29.19224,29.19224,0,0,1,18.51876-8.38945,29.78469,29.78469,0,0,1,22.55843,7.13243l40.33206,34.04169a21.48957,21.48957,0,0,0,7.59886,4.1645,22.14,22.14,0,0,0,8.47358.93353,22.50411,22.50411,0,0,0,8.13122-2.26621,21.301,21.301,0,0,0,6.85667-5.45888,21.54429,21.54429,0,0,0,4.16451-7.59879A22.19284,22.19284,0,0,0,299.92126,77.34172Z" />
</svg>